<svg width="479" height="341" viewBox="0 0 479 341" fill="none" xmlns="http://www.w3.org/2000/svg">
<g filter="url(#filter0_d_501_2)">
<path d="M435.75 271.062H433.419C439.322 271.062 444.102 266.355 444.102 260.55V10.5122C444.102 4.69984 439.322 0 433.419 0H45.8012C39.898 0 35.1095 4.69984 35.1095 10.5122V260.557C35.1095 266.362 39.898 271.07 45.8012 271.07H43.25L4 307.79C4 320.391 14.5818 333 27.5265 333H451.481C463.688 333 475 320.422 475 307.783L435.75 271.062ZM239.61 5.86534C240.429 5.8365 241.245 5.96703 242.011 6.24913C242.776 6.53122 243.475 6.95911 244.065 7.50724C244.655 8.05537 245.124 8.71251 245.445 9.43943C245.766 10.1663 245.931 10.9481 245.932 11.7381C245.933 12.5281 245.768 13.3101 245.448 14.0374C245.128 14.7647 244.66 15.4224 244.07 15.9713C243.481 16.5202 242.783 16.9489 242.018 17.232C241.253 17.515 240.437 17.6465 239.618 17.6187C238.039 17.5651 236.543 16.9229 235.446 15.8275C234.348 14.7321 233.734 13.2688 233.733 11.7457C233.732 10.2226 234.344 8.75854 235.44 7.66174C236.536 6.56493 238.031 5.92094 239.61 5.86534V5.86534ZM46.4293 278.63H432.563L455.626 300.215H283.005L279.88 296.219H199.339L196.207 300.215H23.3581L46.4293 278.63ZM273.381 324.206H205.604C203.28 324.206 197.094 324.206 197.094 316.577H281.898C281.898 324.206 275.586 324.206 273.381 324.206Z" fill="#F5DC74"/>
</g>
<g filter="url(#filter1_d_501_2)">
<path d="M212.844 162.811C213.462 162.192 214.097 161.883 214.748 161.883C215.432 161.883 216.034 162.127 216.555 162.615L219.289 164.617C220.005 165.236 220.363 165.87 220.363 166.521C220.363 167.107 220.07 167.693 219.484 168.279C218.475 169.321 217.385 170.46 216.213 171.697C215.041 172.934 213.885 174.236 212.746 175.604C211.607 176.971 210.533 178.354 209.523 179.754C208.514 181.154 207.668 182.537 206.984 183.904C206.691 184.327 206.545 184.799 206.545 185.32C206.545 185.939 206.854 186.59 207.473 187.273C208.124 187.924 208.954 188.592 209.963 189.275C210.972 189.959 212.111 190.643 213.381 191.326C214.683 191.977 215.985 192.596 217.287 193.182C218.589 193.768 219.842 194.305 221.047 194.793C222.251 195.249 223.293 195.623 224.172 195.916C225.311 196.339 225.881 196.974 225.881 197.82C225.881 198.146 225.702 198.683 225.344 199.432C225.018 200.18 224.579 200.945 224.025 201.727C223.505 202.475 222.935 203.143 222.316 203.729C221.698 204.314 221.112 204.607 220.559 204.607C220.396 204.607 220.217 204.607 220.021 204.607C219.859 204.575 219.68 204.51 219.484 204.412C217.727 203.794 215.969 203.094 214.211 202.312C212.486 201.531 210.777 200.701 209.084 199.822C207.912 199.204 206.561 198.504 205.031 197.723C203.501 196.909 202.069 195.997 200.734 194.988C199.4 193.947 198.26 192.824 197.316 191.619C196.405 190.382 195.949 189.048 195.949 187.615C195.949 186.476 196.21 185.223 196.73 183.855C197.284 182.488 198 181.072 198.879 179.607C199.79 178.143 200.816 176.661 201.955 175.164C203.127 173.667 204.331 172.186 205.568 170.721C206.838 169.256 208.091 167.856 209.328 166.521C210.598 165.187 211.77 163.95 212.844 162.811ZM250.197 156.512C250.881 156.089 251.581 155.796 252.297 155.633C253.013 155.47 253.68 155.389 254.299 155.389C255.113 155.389 255.845 155.535 256.496 155.828C257.147 156.089 257.701 156.43 258.156 156.854C258.612 157.277 258.954 157.765 259.182 158.318C259.442 158.839 259.572 159.36 259.572 159.881C259.572 160.597 259.328 161.281 258.84 161.932C258.384 162.583 257.733 163.136 256.887 163.592C255.194 164.568 253.778 165.398 252.639 166.082C251.499 166.766 250.523 167.384 249.709 167.938C248.928 168.491 248.244 169.012 247.658 169.5C247.072 169.988 246.486 170.525 245.9 171.111C245.054 171.893 244.24 172.788 243.459 173.797C242.678 174.806 241.978 175.815 241.359 176.824C240.773 177.801 240.285 178.745 239.895 179.656C239.536 180.568 239.357 181.316 239.357 181.902C239.357 182.391 239.488 182.781 239.748 183.074C240.008 183.367 240.383 183.514 240.871 183.514C241.392 183.514 241.962 183.335 242.58 182.977C244.566 181.87 246.649 180.877 248.83 179.998C251.044 179.119 253.273 178.37 255.52 177.752C257.766 177.133 260.012 176.678 262.258 176.385C264.504 176.059 266.685 175.896 268.801 175.896C272.154 175.896 275.23 176.271 278.029 177.02C280.829 177.736 283.238 178.745 285.256 180.047C287.274 181.349 288.837 182.928 289.943 184.783C291.05 186.606 291.604 188.608 291.604 190.789C291.604 193.23 290.904 195.574 289.504 197.82C288.104 200.066 286.184 202.036 283.742 203.729C281.301 205.421 278.42 206.772 275.1 207.781C271.779 208.79 268.199 209.295 264.357 209.295C259.247 209.295 254.559 208.758 250.295 207.684C246.063 206.642 242.417 205.177 239.357 203.289C236.33 201.401 233.97 199.155 232.277 196.551C230.617 193.914 229.787 191.033 229.787 187.908C229.787 184.816 230.21 181.788 231.057 178.826C231.936 175.831 233.221 172.999 234.914 170.33C236.639 167.628 238.771 165.122 241.311 162.811C243.85 160.467 246.812 158.367 250.197 156.512ZM281.789 192.498C281.789 191.391 281.431 190.382 280.715 189.471C280.031 188.559 279.055 187.778 277.785 187.127C276.548 186.476 275.035 185.971 273.244 185.613C271.486 185.255 269.533 185.076 267.385 185.076C263.316 185.076 259.328 185.646 255.422 186.785C251.548 187.892 247.902 189.503 244.484 191.619C243.671 192.14 243.264 192.775 243.264 193.523C243.264 194.044 243.557 194.581 244.143 195.135C244.729 195.656 245.526 196.16 246.535 196.648C247.544 197.137 248.732 197.609 250.1 198.064C251.467 198.52 252.915 198.911 254.445 199.236C255.975 199.562 257.554 199.822 259.182 200.018C260.809 200.213 262.404 200.311 263.967 200.311C266.473 200.311 268.801 200.115 270.949 199.725C273.13 199.301 275.018 198.748 276.613 198.064C278.241 197.348 279.51 196.518 280.422 195.574C281.333 194.63 281.789 193.605 281.789 192.498ZM300.344 157.195C299.4 157.195 298.505 157.065 297.658 156.805C296.844 156.512 296.128 156.121 295.51 155.633C294.924 155.112 294.452 154.51 294.094 153.826C293.736 153.143 293.557 152.394 293.557 151.58C293.557 150.213 294.094 149.106 295.168 148.26C296.275 147.413 297.74 146.99 299.562 146.99C300.409 146.99 301.223 147.153 302.004 147.479C302.785 147.771 303.469 148.178 304.055 148.699C304.673 149.22 305.161 149.839 305.52 150.555C305.878 151.238 306.057 151.954 306.057 152.703C306.057 154.103 305.536 155.21 304.494 156.023C303.485 156.805 302.102 157.195 300.344 157.195ZM293.654 172.088C293.654 170.949 294.143 170.021 295.119 169.305C296.128 168.556 297.447 168.182 299.074 168.182C302.004 168.182 303.566 169.191 303.762 171.209C303.892 172.609 304.022 174.188 304.152 175.945C304.315 177.703 304.462 179.575 304.592 181.561C304.755 183.514 304.885 185.548 304.982 187.664C305.113 189.747 305.227 191.814 305.324 193.865C305.422 195.883 305.503 197.837 305.568 199.725C305.633 201.613 305.666 203.338 305.666 204.9C305.666 206.528 305.08 207.749 303.908 208.562C302.769 209.376 301.092 209.783 298.879 209.783C297.87 209.783 297.072 209.539 296.486 209.051C295.933 208.595 295.656 207.911 295.656 207C295.656 202.508 295.542 198.309 295.314 194.402C295.119 190.464 294.891 186.964 294.631 183.904C294.403 180.844 294.175 178.305 293.947 176.287C293.752 174.236 293.654 172.837 293.654 172.088ZM341.164 170.477C339.96 170.477 338.902 170.802 337.99 171.453C337.079 172.072 336.298 172.951 335.646 174.09C334.995 175.197 334.458 176.515 334.035 178.045C333.612 179.542 333.27 181.186 333.01 182.977C332.749 184.767 332.57 186.639 332.473 188.592C332.375 190.545 332.326 192.514 332.326 194.5C332.326 197.104 332.424 199.676 332.619 202.215C332.847 204.721 332.961 207.049 332.961 209.197C332.961 210.597 332.44 211.688 331.398 212.469C330.357 213.283 328.876 213.689 326.955 213.689C326.597 213.689 326.19 213.657 325.734 213.592C325.279 213.527 324.839 213.396 324.416 213.201C324.025 213.006 323.667 212.729 323.342 212.371C323.049 212.046 322.886 211.59 322.854 211.004C322.561 208.139 322.137 205.21 321.584 202.215C321.031 199.22 320.331 196.242 319.484 193.279C318.671 190.285 317.678 187.322 316.506 184.393C315.367 181.463 314.048 178.598 312.551 175.799C312.29 175.311 312.062 174.855 311.867 174.432C311.704 174.008 311.623 173.602 311.623 173.211C311.623 172.723 311.835 172.202 312.258 171.648C312.714 171.062 313.267 170.525 313.918 170.037C314.602 169.549 315.334 169.158 316.115 168.865C316.929 168.54 317.71 168.377 318.459 168.377C319.696 168.377 320.786 169.24 321.73 170.965C322.674 172.658 323.553 175.376 324.367 179.119C324.53 179.77 324.66 180.226 324.758 180.486C324.855 180.747 324.986 180.877 325.148 180.877C325.507 180.877 325.734 180.324 325.832 179.217C326.223 176.124 326.89 173.471 327.834 171.258C328.778 169.012 329.95 167.173 331.35 165.74C332.782 164.275 334.41 163.201 336.232 162.518C338.088 161.834 340.122 161.492 342.336 161.492C343.605 161.492 344.891 161.606 346.193 161.834C347.495 162.062 348.667 162.404 349.709 162.859C350.751 163.315 351.597 163.868 352.248 164.52C352.899 165.171 353.225 165.903 353.225 166.717C353.225 167.303 353.094 168.003 352.834 168.816C352.606 169.598 352.297 170.363 351.906 171.111C351.516 171.827 351.06 172.446 350.539 172.967C350.051 173.455 349.546 173.699 349.025 173.699C348.439 173.699 347.87 173.536 347.316 173.211C346.763 172.853 346.161 172.479 345.51 172.088C344.891 171.697 344.224 171.339 343.508 171.014C342.824 170.656 342.043 170.477 341.164 170.477ZM359.377 152.703C359.702 151.206 360.646 150.408 362.209 150.311L366.799 150.115C367.743 150.18 368.378 150.424 368.703 150.848C369.029 151.271 369.191 151.954 369.191 152.898C367.466 163.022 365.676 173.13 363.82 183.221C361.965 193.279 359.849 203.338 357.473 213.396C357.277 214.243 356.936 214.796 356.447 215.057C355.959 215.35 355.308 215.496 354.494 215.496L350.1 215.008C349.383 214.943 348.83 214.715 348.439 214.324C348.081 213.966 347.902 213.462 347.902 212.811C347.902 212.713 347.902 212.583 347.902 212.42C347.902 212.29 347.935 212.143 348 211.98C349.465 205.177 350.751 199.025 351.857 193.523C352.997 187.99 354.006 182.879 354.885 178.191C355.796 173.471 356.61 169.061 357.326 164.959C358.042 160.825 358.726 156.74 359.377 152.703ZM383.107 203.68C382.521 204.298 381.887 204.607 381.203 204.607C380.585 204.607 379.982 204.38 379.396 203.924L376.711 201.922C375.995 201.271 375.637 200.636 375.637 200.018C375.637 199.399 375.93 198.797 376.516 198.211C377.525 197.202 378.615 196.079 379.787 194.842C380.959 193.572 382.115 192.254 383.254 190.887C384.393 189.52 385.467 188.136 386.477 186.736C387.486 185.337 388.332 183.953 389.016 182.586C389.178 182.326 389.276 182.081 389.309 181.854C389.374 181.626 389.406 181.414 389.406 181.219C389.406 180.6 389.081 179.949 388.43 179.266C387.811 178.582 386.997 177.898 385.988 177.215C384.979 176.531 383.824 175.864 382.521 175.213C381.252 174.529 379.966 173.911 378.664 173.357C377.362 172.771 376.109 172.251 374.904 171.795C373.7 171.307 372.674 170.916 371.828 170.623C370.689 170.167 370.119 169.533 370.119 168.719C370.119 168.393 370.282 167.856 370.607 167.107C370.965 166.359 371.405 165.594 371.926 164.812C372.447 164.031 373.016 163.348 373.635 162.762C374.286 162.176 374.888 161.883 375.441 161.883C375.604 161.883 375.767 161.899 375.93 161.932C376.125 161.932 376.32 161.98 376.516 162.078C378.273 162.697 380.015 163.396 381.74 164.178C383.465 164.959 385.191 165.805 386.916 166.717C388.088 167.303 389.423 168.003 390.92 168.816C392.45 169.63 393.882 170.542 395.217 171.551C396.551 172.56 397.674 173.683 398.586 174.92C399.53 176.124 400.002 177.459 400.002 178.924C400.002 180.649 399.416 182.586 398.244 184.734C397.105 186.883 395.673 189.08 393.947 191.326C392.255 193.572 390.432 195.77 388.479 197.918C386.525 200.066 384.735 201.987 383.107 203.68Z" fill="#CD60DA"/>
</g>
<g filter="url(#filter2_d_501_2)">
<path d="M98.5469 88.6602C100.578 88.6602 102.551 88.9531 104.465 89.5391C106.379 90.125 108.059 90.9258 109.504 91.9414C110.988 92.918 112.18 94.0508 113.078 95.3398C113.977 96.5898 114.426 97.8789 114.426 99.207C114.426 100.066 114.25 100.906 113.898 101.727C113.547 102.508 113.078 103.211 112.492 103.836C111.906 104.422 111.242 104.91 110.5 105.301C109.758 105.652 108.977 105.828 108.156 105.828C107.258 105.828 106.438 105.496 105.695 104.832C104.953 104.129 104.152 103.367 103.293 102.547C102.473 101.688 101.535 100.926 100.48 100.262C99.4648 99.5586 98.2344 99.207 96.7891 99.207C95.3828 99.207 94.1133 99.5391 92.9805 100.203C91.8477 100.867 90.8906 101.805 90.1094 103.016C89.3672 104.188 88.7812 105.594 88.3516 107.234C87.9609 108.836 87.7656 110.594 87.7656 112.508C87.7656 117.977 88.8008 122.156 90.8711 125.047C92.9414 127.898 95.9102 129.324 99.7773 129.324C101.613 129.324 103.176 129.031 104.465 128.445C105.793 127.859 106.945 127.215 107.922 126.512C108.938 125.809 109.855 125.164 110.676 124.578C111.496 123.992 112.336 123.699 113.195 123.699C113.664 123.699 114.133 123.855 114.602 124.168C115.07 124.441 115.48 124.812 115.832 125.281C116.223 125.711 116.535 126.199 116.77 126.746C117.043 127.293 117.18 127.84 117.18 128.387C117.18 129.676 116.535 131.004 115.246 132.371C113.996 133.738 112.375 134.988 110.383 136.121C108.391 137.215 106.164 138.113 103.703 138.816C101.281 139.52 98.918 139.871 96.6133 139.871C93.5273 139.871 90.6953 139.266 88.1172 138.055C85.5391 136.883 83.3125 135.242 81.4375 133.133C79.5625 130.984 78.0977 128.426 77.043 125.457C76.0273 122.488 75.5195 119.207 75.5195 115.613C75.5195 111.707 76.0859 108.113 77.2188 104.832C78.3906 101.551 79.9922 98.7188 82.0234 96.3359C84.0938 93.9141 86.5352 92.0391 89.3477 90.7109C92.1602 89.3438 95.2266 88.6602 98.5469 88.6602ZM119.406 117.547C119.406 116.883 119.484 116.141 119.641 115.32C119.797 114.5 119.875 113.602 119.875 112.625C119.875 111.961 119.582 111.453 118.996 111.102C118.449 110.75 117.824 110.359 117.121 109.93C116.418 109.5 115.773 108.953 115.188 108.289C114.641 107.625 114.367 106.668 114.367 105.418C114.367 104.52 114.602 103.621 115.07 102.723C115.578 101.824 116.301 101.004 117.238 100.262C119.543 98.543 121.926 97 124.387 95.6328C126.887 94.2656 129.367 93.1133 131.828 92.1758C134.328 91.2383 136.789 90.5156 139.211 90.0078C141.633 89.5 143.957 89.2461 146.184 89.2461C149.934 89.2461 153.449 89.9492 156.73 91.3555C160.051 92.7227 162.922 94.6172 165.344 97.0391C167.805 99.4219 169.738 102.234 171.145 105.477C172.59 108.68 173.312 112.117 173.312 115.789C173.312 119.383 172.551 122.801 171.027 126.043C169.543 129.246 167.531 132.059 164.992 134.48C162.453 136.902 159.465 138.816 156.027 140.223C152.629 141.668 149.035 142.391 145.246 142.391C141.535 142.391 138.098 141.766 134.934 140.516C131.77 139.266 129.035 137.547 126.73 135.359C124.426 133.133 122.629 130.516 121.34 127.508C120.051 124.461 119.406 121.141 119.406 117.547ZM146.535 131.844C148.176 131.844 149.875 131.512 151.633 130.848C153.391 130.184 154.992 129.227 156.438 127.977C157.922 126.688 159.133 125.125 160.07 123.289C161.047 121.453 161.535 119.383 161.535 117.078C161.535 114.734 161.105 112.547 160.246 110.516C159.387 108.484 158.195 106.727 156.672 105.242C155.188 103.719 153.41 102.527 151.34 101.668C149.309 100.809 147.102 100.379 144.719 100.379C140.383 100.379 137.062 101.512 134.758 103.777C132.453 106.004 131.301 109.441 131.301 114.09C131.301 116.629 131.672 118.992 132.414 121.18C133.195 123.328 134.27 125.203 135.637 126.805C137.004 128.367 138.605 129.598 140.441 130.496C142.316 131.395 144.348 131.844 146.535 131.844ZM220.188 94.168C220.344 94.2461 220.578 94.2852 220.891 94.2852C221.75 94.2852 222.18 93.7188 222.18 92.5859V74.3633C222.18 72.0586 222.688 70.418 223.703 69.4414C224.758 68.4648 226.496 67.9766 228.918 67.9766C231.379 67.9766 233.117 68.4844 234.133 69.5C235.148 70.5156 235.656 72.2539 235.656 74.7148C235.656 75.6523 235.598 77.0391 235.48 78.875C235.363 80.6719 235.227 82.7227 235.07 85.0273C234.953 87.332 234.836 89.8125 234.719 92.4688C234.602 95.0859 234.543 97.6836 234.543 100.262C234.543 104.246 234.816 107.684 235.363 110.574C235.91 113.465 236.691 115.867 237.707 117.781C238.723 119.656 239.934 121.062 241.34 122C242.746 122.898 244.328 123.348 246.086 123.348C247.062 123.348 247.941 123.23 248.723 122.996C249.543 122.723 250.5 122.586 251.594 122.586C252.375 122.586 253.02 122.996 253.527 123.816C254.074 124.598 254.348 125.555 254.348 126.688C254.348 127.703 254.035 128.66 253.41 129.559C252.824 130.457 252.004 131.238 250.949 131.902C249.934 132.566 248.742 133.094 247.375 133.484C246.008 133.836 244.582 134.012 243.098 134.012C239.895 134.012 236.965 133.035 234.309 131.082C231.652 129.09 229.66 126.062 228.332 122C228.215 121.375 228.02 121.062 227.746 121.062C227.434 121.062 227.18 121.375 226.984 122C225.93 124.852 224.543 127.43 222.824 129.734C221.145 132 219.172 133.953 216.906 135.594C214.68 137.195 212.219 138.426 209.523 139.285C206.867 140.145 204.055 140.574 201.086 140.574C197.961 140.574 195.09 140.047 192.473 138.992C189.895 137.977 187.668 136.551 185.793 134.715C183.918 132.84 182.453 130.652 181.398 128.152C180.344 125.613 179.816 122.879 179.816 119.949C179.816 116.199 180.598 112.664 182.16 109.344C183.723 106.023 185.832 103.133 188.488 100.672C191.184 98.1719 194.309 96.1992 197.863 94.7539C201.418 93.3086 205.207 92.5859 209.23 92.5859C210.871 92.5859 212.609 92.7227 214.445 92.9961C216.281 93.2305 218.195 93.6211 220.188 94.168ZM203.371 130.027C205.598 130.027 207.57 129.539 209.289 128.562C211.047 127.586 212.59 126.355 213.918 124.871C215.285 123.348 216.438 121.688 217.375 119.891C218.312 118.055 219.074 116.277 219.66 114.559C220.246 112.84 220.676 111.297 220.949 109.93C221.223 108.562 221.359 107.586 221.359 107C221.359 106.57 221.242 106.199 221.008 105.887C220.773 105.535 220.422 105.262 219.953 105.066C218.898 104.793 217.805 104.559 216.672 104.363C215.539 104.129 214.426 103.934 213.332 103.777C212.238 103.621 211.184 103.504 210.168 103.426C209.191 103.348 208.293 103.309 207.473 103.309C205.129 103.309 203 103.66 201.086 104.363C199.172 105.066 197.531 106.062 196.164 107.352C194.836 108.641 193.801 110.184 193.059 111.98C192.316 113.738 191.945 115.672 191.945 117.781C191.945 119.656 192.219 121.355 192.766 122.879C193.352 124.363 194.133 125.633 195.109 126.688C196.125 127.742 197.336 128.562 198.742 129.148C200.148 129.734 201.691 130.027 203.371 130.027ZM301.164 124.168C302.297 123.191 303.41 122.703 304.504 122.703C305.129 122.703 305.695 122.859 306.203 123.172C306.711 123.484 307.277 123.973 307.902 124.637C308.488 125.535 308.898 126.277 309.133 126.863C309.406 127.41 309.543 127.957 309.543 128.504C309.543 129.676 308.957 130.789 307.785 131.844C305.91 133.406 303.879 134.812 301.691 136.062C299.504 137.273 297.219 138.309 294.836 139.168C292.453 140.027 289.992 140.672 287.453 141.102C284.914 141.57 282.395 141.805 279.895 141.805C276.73 141.805 273.762 141.395 270.988 140.574C268.215 139.793 265.734 138.66 263.547 137.176C261.398 135.691 259.582 133.914 258.098 131.844C256.613 129.734 255.559 127.371 254.934 124.754C254.582 123.66 254.25 122.957 253.938 122.645C253.664 122.293 253.195 122.117 252.531 122.117C251.086 122.117 249.973 121.766 249.191 121.062C248.41 120.359 248.02 119.344 248.02 118.016C248.02 117.469 248.059 117.117 248.137 116.961L248.254 115.789C248.449 114.383 248.82 113.367 249.367 112.742C249.953 112.117 250.852 111.805 252.062 111.805H252.941C254.582 111.805 255.734 111.043 256.398 109.52C257.609 106.824 259.152 104.363 261.027 102.137C262.902 99.9102 265.012 98.0156 267.355 96.4531C269.699 94.8516 272.199 93.6211 274.855 92.7617C277.551 91.8633 280.285 91.4141 283.059 91.4141C285.949 91.4141 288.645 91.8438 291.145 92.7031C293.684 93.5234 295.891 94.6758 297.766 96.1602C299.641 97.6445 301.105 99.3828 302.16 101.375C303.254 103.367 303.801 105.516 303.801 107.82C303.801 109.422 303.488 110.887 302.863 112.215C302.238 113.543 301.34 114.715 300.168 115.73C298.996 116.707 297.57 117.508 295.891 118.133C294.25 118.758 292.375 119.168 290.266 119.363L269.934 121.414C269.152 121.414 268.508 121.609 268 122C267.531 122.391 267.297 122.918 267.297 123.582C267.297 124.598 267.668 125.574 268.41 126.512C269.191 127.449 270.207 128.289 271.457 129.031C272.746 129.734 274.211 130.301 275.852 130.73C277.531 131.16 279.25 131.375 281.008 131.375C282.688 131.375 284.406 131.219 286.164 130.906C287.961 130.555 289.719 130.066 291.438 129.441C293.195 128.816 294.895 128.074 296.535 127.215C298.176 126.316 299.719 125.301 301.164 124.168ZM288.098 109.051C288.684 108.934 289.191 108.66 289.621 108.23C290.051 107.762 290.266 107.195 290.266 106.531C290.266 105.945 290.051 105.398 289.621 104.891C289.191 104.383 288.605 103.934 287.863 103.543C287.121 103.113 286.262 102.781 285.285 102.547C284.309 102.312 283.273 102.195 282.18 102.195C280.578 102.195 278.938 102.43 277.258 102.898C275.578 103.367 274.055 103.992 272.688 104.773C271.32 105.516 270.207 106.355 269.348 107.293C268.488 108.191 268.059 109.09 268.059 109.988C268.059 110.887 268.605 111.336 269.699 111.336C270.363 111.336 271.438 111.258 272.922 111.102C274.406 110.945 276.047 110.77 277.844 110.574C279.641 110.34 281.457 110.086 283.293 109.812C285.129 109.539 286.73 109.285 288.098 109.051Z" fill="white"/>
</g>
<defs>
<filter id="filter0_d_501_2" x="0" y="0" width="479" height="341" filterUnits="userSpaceOnUse" color-interpolation-filters="sRGB">
<feFlood flood-opacity="0" result="BackgroundImageFix"/>
<feColorMatrix in="SourceAlpha" type="matrix" values="0 0 0 0 0 0 0 0 0 0 0 0 0 0 0 0 0 0 127 0" result="hardAlpha"/>
<feOffset dy="4"/>
<feGaussianBlur stdDeviation="2"/>
<feColorMatrix type="matrix" values="0 0 0 0 0 0 0 0 0 0 0 0 0 0 0 0 0 0 0.25 0"/>
<feBlend mode="normal" in2="BackgroundImageFix" result="effect1_dropShadow_501_2"/>
<feBlend mode="normal" in="SourceGraphic" in2="effect1_dropShadow_501_2" result="shape"/>
</filter>
<filter id="filter1_d_501_2" x="191.949" y="146.99" width="212.053" height="76.5059" filterUnits="userSpaceOnUse" color-interpolation-filters="sRGB">
<feFlood flood-opacity="0" result="BackgroundImageFix"/>
<feColorMatrix in="SourceAlpha" type="matrix" values="0 0 0 0 0 0 0 0 0 0 0 0 0 0 0 0 0 0 127 0" result="hardAlpha"/>
<feOffset dy="4"/>
<feGaussianBlur stdDeviation="2"/>
<feColorMatrix type="matrix" values="0 0 0 0 0 0 0 0 0 0 0 0 0 0 0 0 0 0 0.25 0"/>
<feBlend mode="normal" in2="BackgroundImageFix" result="effect1_dropShadow_501_2"/>
<feBlend mode="normal" in="SourceGraphic" in2="effect1_dropShadow_501_2" result="shape"/>
</filter>
<filter id="filter2_d_501_2" x="71.5195" y="67.9766" width="242.023" height="82.4141" filterUnits="userSpaceOnUse" color-interpolation-filters="sRGB">
<feFlood flood-opacity="0" result="BackgroundImageFix"/>
<feColorMatrix in="SourceAlpha" type="matrix" values="0 0 0 0 0 0 0 0 0 0 0 0 0 0 0 0 0 0 127 0" result="hardAlpha"/>
<feOffset dy="4"/>
<feGaussianBlur stdDeviation="2"/>
<feColorMatrix type="matrix" values="0 0 0 0 0 0 0 0 0 0 0 0 0 0 0 0 0 0 0.25 0"/>
<feBlend mode="normal" in2="BackgroundImageFix" result="effect1_dropShadow_501_2"/>
<feBlend mode="normal" in="SourceGraphic" in2="effect1_dropShadow_501_2" result="shape"/>
</filter>
</defs>
</svg>
